<?xml version="1.0" encoding="utf-8"?>
<!-- Generator: Adobe Illustrator 27.4.1, SVG Export Plug-In . SVG Version: 6.00 Build 0)  -->
<svg version="1.1" id="Layer_1" xmlns="http://www.w3.org/2000/svg" xmlns:xlink="http://www.w3.org/1999/xlink" x="0px" y="0px"
	 viewBox="0 0 180 128" style="enable-background:new 0 0 180 128;" xml:space="preserve">
<style type="text/css">
	.st0{fill-rule:evenodd;clip-rule:evenodd;fill:#ED1C24;}
</style>
<path class="st0" d="M142.8,106.4c-11.1,6.8-23.9,12.1-38.4,16c-16.1,4.3-31.3,6-45.6,5.2c-14.3-0.9-26.4-4.6-36.4-11.2
	S5.6,100.1,2.1,87c-3.5-13.1-2.6-25,2.8-35.7C10.3,40.6,19,31.4,31,23.6C42.9,15.8,56.9,9.7,73,5.4c16-4.3,31.2-6,45.4-5.2
	c9.5,0.6,18.2,2.4,25.8,5.5c3.7,1.5,7.3,3.4,10.6,5.5c10.1,6.5,16.8,16.3,20.3,29.4c3.5,13.1,2.5,24.9-2.9,35.7
	c-0.8,1.5-1.6,3-2.5,4.4c-0.6-2.8-1.9-5.3-3.8-7.4c-0.9-1-2-2-3.1-2.8c-2.3-1.8-5.1-3.2-8.3-4.2c-4.8-1.6-10-2.4-15.9-2.4
	c-5.9,0-11.2,0.8-15.9,2.3c-4.8,1.6-8.6,3.9-11.4,7c-2.8,3.1-4.2,7.1-4.2,11.9c0,4.8,1.4,8.7,4.2,11.9c2.8,3.2,6.6,5.5,11.4,7.1
	c4.8,1.6,10.1,2.4,15.9,2.4C140.1,106.5,141.5,106.5,142.8,106.4z M92,97.9c-1.1,1.2-3.1,2.5-5.9,3.8c-2.8,1.3-6.2,2.5-10.2,3.4
	c-4,0.9-8.2,1.4-12.8,1.4c-4,0-7.9-0.4-11.7-1.2c-3.8-0.8-7.3-2-10.4-3.7c-3.1-1.7-5.6-3.9-7.4-6.6c-1.8-2.7-2.8-6-2.8-9.9
	c0-3.9,0.9-7.3,2.8-10c1.8-2.7,4.3-4.9,7.4-6.6c3.1-1.7,6.6-2.9,10.4-3.6c3.8-0.7,7.7-1.1,11.7-1.1c4.6,0,8.8,0.4,12.7,1.2
	c3.9,0.8,7.2,1.9,10,3.2c2.8,1.3,4.8,2.7,6.1,4.2l-10.4,6.8c-1.5-1.7-3.8-3-6.9-4c-3.1-1-6.9-1.5-11.3-1.5c-2.2,0-4.4,0.2-6.6,0.5
	c-2.2,0.3-4.2,0.9-6.1,1.7c-1.8,0.8-3.3,2-4.5,3.4c-1.1,1.5-1.7,3.3-1.7,5.6c0,2.2,0.6,4.1,1.7,5.5c1.1,1.5,2.6,2.6,4.5,3.5
	c1.8,0.9,3.9,1.5,6.1,1.8c2.2,0.4,4.4,0.5,6.6,0.5c4.3,0,8.1-0.5,11.3-1.6c3.2-1.1,5.4-2.3,6.7-3.7L92,97.9z M138.8,96.4
	c5.7,0,10.1-1,13.2-3.1c3.1-2,4.7-4.7,4.7-8.1c0-3.4-1.6-6.2-4.7-8.1c-3.1-2-7.5-3-13.2-3c-5.7,0-10.1,1-13.3,3s-4.7,4.7-4.7,8.1
	c0,3.4,1.6,6.1,4.7,8.1C128.7,95.3,133.1,96.4,138.8,96.4z"/>
</svg>
